# xmcd
#
# Track frame offsets:
#	150
#	20208
#	35674
#	51808
#	77211
#	93252
#	112415
#	128615
#	151727
#	164336
#	183340
#	201579
#	221067
#	240356
#
# Disc length: 3435 seconds
#
# Revision: 5
# Processed by: cddbd v1.5.2PL0 Copyright (c) Steve Scherf et al.
# Submitted via: EZCDAudioConverter 8.0.2.1
#
DISCID=c30d690e
DTITLE=CHITÃOZINHO and XORORÓ - CORAÇÃO DO BRASIL [CD 526435-2) POLYGRAM
DYEAR=1994
DGENRE=Sertanejo
TTITLE0=QUANDO ABRAÇO A SOLIDÃO (BY GILMAR SINISTRO)
TTITLE1=ATÉ QUE TE CONHECI (HASTA QUE TE CONOCI) (BY GILMAR SINISTRO)
TTITLE2=SAUDADE DELA (BY GILMAR SINISTRO)
TTITLE3=CAMINHONEIRO (GENTLE ON MY MIND) (BY GILMAR SINISTRO)
TTITLE4=ATÉ VOCÊ VOLTAR (BY GILMAR SINISTRO)
TTITLE5=MENINOS PASSARINHOS (BY GILMAR SINISTRO)
TTITLE6=COLHEITA DE MILHO (CHIQUINHA) (BY GILMAR SINISTRO)
TTITLE7=PERDÕES (BY GILMAR SINISTRO)
TTITLE8=SORRISO MUDO (BY GILMAR SINISTRO)
TTITLE9=EU TENHO UMA AMIGA (YO TENGO UNA AMIGA) (BY GILMAR SINISTRO)
TTITLE10=SEPARAÇÃO (BY GILMAR SINISTRO)
TTITLE11=COMEÇOU TUDO DE NOVO (BY GILMAR SINISTRO)
TTITLE12=PERTINHO DO CÉU (LA CIMA DEL CIELO (BY GILMAR SINISTRO)
TTITLE13=ELA NÃO VAI MAIS CHORAR (SHE'S NOT CRYING ANYMORE) (PARTICIPAÇÃO BILL
TTITLE13=Y RAY CYRUS) (BY GILMAR SINISTRO)
EXTD=
EXTT0=
EXTT1=
EXTT2=
EXTT3=
EXTT4=
EXTT5=
EXTT6=
EXTT7=
EXTT8=
EXTT9=
EXTT10=
EXTT11=
EXTT12=
EXTT13=
PLAYORDER=
